<?xml version="1.0" encoding="UTF-8"?><svg id="Ebene_2" xmlns="http://www.w3.org/2000/svg" viewBox="0 0 338 507"><defs><style>.cls-1{fill:none;stroke:#1d1d1b;stroke-miterlimit:10;stroke-width:7px;}</style></defs><g id="Ebene_1-2"><path class="cls-1" d="m136.5,18.5c17,0,18,16,38,16,8,0,13-14,63-14,16,0,16-17,40-17,16,0,33,82,33,101,0,17-3,46-3,46,0,0,27,39,27,90,0,40-2,62-20,62-9,0,8,55,8,73,0,34-6,45-6,65,0,9,12,9,12,32,0,14-13,31-34,31s-39-17-39-30-12-23-37-23c-23,0-34,10-34,28,0,11-8,25-29,25-27,0-33-7-33-35,0-15-43-53-43-99,0-16-76,21-76-11,0-47,72-58,72-76,0-88,43-134,43-134,0,0-10-34-10-49,0-19,11-81,28-81Z"/></g></svg>